<svg width="520" height="260" viewBox="0 0 520 260" fill="none" xmlns="http://www.w3.org/2000/svg">
  <defs>
    <linearGradient id="g1" x1="0" y1="0" x2="0" y2="1">
      <stop offset="0" stop-color="#2CC25D"/>
      <stop offset="1" stop-color="#0A7F32"/>
    </linearGradient>
    <linearGradient id="g2" x1="0" y1="0" x2="1" y2="1">
      <stop offset="0" stop-color="#E8F9ED" stop-opacity="0.9"/>
      <stop offset="1" stop-color="#E8F9ED" stop-opacity="0"/>
    </linearGradient>
  </defs>
  <circle cx="412" cy="126" r="96" fill="url(#g2)"/>
  <rect x="24" y="116" width="54" height="110" rx="8" fill="url(#g1)"/>
  <rect x="86" y="76" width="68" height="150" rx="8" fill="#0E963D"/>
  <rect x="164" y="34" width="90" height="192" rx="8" fill="#0A7F32"/>
  <rect x="264" y="56" width="62" height="170" rx="8" fill="#0E963D"/>
  <rect x="336" y="102" width="48" height="124" rx="8" fill="#0A7F32"/>
  <rect x="394" y="82" width="92" height="144" rx="8" fill="#16B74A"/>
  <path d="M16 226H504" stroke="#055523" stroke-width="6" stroke-linecap="round"/>
  <g opacity="0.7" fill="#E8F9ED">
    <rect x="102" y="94" width="10" height="10" rx="2"/>
    <rect x="118" y="94" width="10" height="10" rx="2"/>
    <rect x="102" y="114" width="10" height="10" rx="2"/>
    <rect x="118" y="114" width="10" height="10" rx="2"/>
    <rect x="180" y="60" width="10" height="10" rx="2"/>
    <rect x="198" y="60" width="10" height="10" rx="2"/>
    <rect x="216" y="60" width="10" height="10" rx="2"/>
    <rect x="180" y="82" width="10" height="10" rx="2"/>
    <rect x="198" y="82" width="10" height="10" rx="2"/>
    <rect x="216" y="82" width="10" height="10" rx="2"/>
    <rect x="410" y="104" width="10" height="10" rx="2"/>
    <rect x="428" y="104" width="10" height="10" rx="2"/>
    <rect x="446" y="104" width="10" height="10" rx="2"/>
    <rect x="410" y="124" width="10" height="10" rx="2"/>
    <rect x="428" y="124" width="10" height="10" rx="2"/>
    <rect x="446" y="124" width="10" height="10" rx="2"/>
  </g>
</svg>
