<svg width="64" height="64" viewBox="0 0 64 64" fill="none" xmlns="http://www.w3.org/2000/svg">
  <circle cx="32" cy="32" r="22" fill="#E8F9ED" stroke="#0A7F32" stroke-width="3"/>
  <path d="M25 20C23.8 20 22.8 21 22.9 22.2C23.4 31.3 31.1 39 40.2 39.5C41.4 39.6 42.4 38.6 42.4 37.4V34.5C42.4 33.6 41.8 32.8 40.9 32.5L37.4 31.3C36.6 31 35.7 31.2 35.2 31.9L34 33.4C31.2 32.1 28.9 29.8 27.6 27L29.1 25.8C29.8 25.3 30 24.4 29.7 23.6L28.5 20.1C28.2 19.2 27.4 18.6 26.5 18.6H25V20Z" fill="#16B74A" stroke="#055523" stroke-width="2"/>
</svg>
