<svg width="64" height="64" viewBox="0 0 64 64" fill="none" xmlns="http://www.w3.org/2000/svg">
  <circle cx="32" cy="32" r="24" fill="#E8F9ED" stroke="#0A7F32" stroke-width="3"/>
  <path d="M23 18C21 18 19.4 19.6 19.5 21.6C20.1 33.4 30.6 43.9 42.4 44.5C44.4 44.6 46 43 46 41V36.8C46 35.4 45.1 34.1 43.8 33.7L38.8 32C37.7 31.7 36.5 32 35.8 32.9L34.2 35.1C30.5 33.3 27.7 30.5 25.9 26.8L28.1 25.2C29 24.5 29.3 23.3 29 22.2L27.3 17.2C26.9 15.9 25.6 15 24.2 15H23V18Z" fill="#16B74A" stroke="#055523" stroke-width="2"/>
</svg>
